<svg xmlns="http://www.w3.org/2000/svg" width="42.76" height="27.32" viewBox="0 0 21.38 13.66">
  <defs>
    <style>
      .cls-1 {
        fill: #062033;
        fill-rule: evenodd;
        opacity: 0.2;
      }
    </style>
  </defs>
  <path id="behance" class="cls-1" d="M1054.6,4293.35h5.32v1.35h-5.32v-1.35Zm7.34,8.04h-6.93a2.075,2.075,0,0,0,2.36,2.3c1.06,0,1.92-.33,2.08-0.93h2.12c-0.75,2.27-2.12,2.93-4.29,2.93-3.03,0-4.9-2.09-4.9-5.08a4.826,4.826,0,0,1,4.9-5.09C1060.55,4295.52,1062.13,4298.43,1061.94,4301.39Zm-6.93-1.97h4.3c-0.25-1.34-.82-1.9-2.1-1.9A1.986,1.986,0,0,0,1055.01,4299.42Zm-3.33,2.14c0,2.71-2.28,3.87-4.68,3.87h-6.42v-13.41h6.24c2.52,0,4.23.9,4.23,3.39a2.93,2.93,0,0,1-1.8,2.78A3.232,3.232,0,0,1,1051.68,4301.56Zm-5.71-7.29h-2.73v3.12h2.96a1.535,1.535,0,0,0,1.78-1.58C1047.98,4294.54,1047.01,4294.27,1045.97,4294.27Zm0.45,5.12h-3.18v3.66h3.12c1.15,0,2.16-.38,2.16-1.76A1.8,1.8,0,0,0,1046.42,4299.39Z" transform="translate(-1040.56 -4292.03)"/>
</svg>
