<svg xmlns="http://www.w3.org/2000/svg" width="42.76" height="42.76" viewBox="0 0 21.38 21.38">
  <defs>
    <style>
      .cls-1 {
        fill: #062033;
        fill-rule: evenodd;
        opacity: 0.2;
      }
    </style>
  </defs>
  <path id="dribbble" class="cls-1" d="M1061.72,4370.28a10.77,10.77,0,0,0-.62-2,10.33,10.33,0,0,0-.99-1.82,11.489,11.489,0,0,0-1.3-1.58,10.922,10.922,0,0,0-1.58-1.3,10.33,10.33,0,0,0-1.82-.99,10.77,10.77,0,0,0-2-.62,11.124,11.124,0,0,0-2.15-.22,10.966,10.966,0,0,0-2.15.22,10.508,10.508,0,0,0-3.83,1.61,10.572,10.572,0,0,0-2.88,2.88,10.284,10.284,0,0,0-.98,1.82,10.1,10.1,0,0,0-.63,2,11.111,11.111,0,0,0,0,4.3,9.984,9.984,0,0,0,.63,2.01,10.556,10.556,0,0,0,.98,1.81,10.408,10.408,0,0,0,1.3,1.58,11.564,11.564,0,0,0,1.58,1.31,11.391,11.391,0,0,0,1.82.98,10.639,10.639,0,0,0,2.01.62,10.253,10.253,0,0,0,2.15.22,10.391,10.391,0,0,0,2.15-.22,10.77,10.77,0,0,0,2-.62,10.4,10.4,0,0,0,3.4-2.29,10.408,10.408,0,0,0,1.3-1.58,10.366,10.366,0,0,0,1.61-3.82A10.616,10.616,0,0,0,1061.72,4370.28Zm-1.35,2.06a21.144,21.144,0,0,0-6.35-.3c-0.06-.15-0.13-0.31-0.2-0.47-0.18-.44-0.39-0.89-0.6-1.32a11.705,11.705,0,0,0,5.08-3.61A9.061,9.061,0,0,1,1060.37,4372.34Zm-3.09-6.75a9.95,9.95,0,0,1-4.76,3.3,47.894,47.894,0,0,0-3.41-5.32A9.071,9.071,0,0,1,1057.28,4365.59Zm-8.21-2.01h0a0.077,0.077,0,0,0-.03.01A0.037,0.037,0,0,1,1049.07,4363.58Zm-1.71.6a53.8,53.8,0,0,1,3.39,5.26,33.512,33.512,0,0,1-8.42,1.11A9.16,9.16,0,0,1,1047.36,4364.18Zm-5.22,8.25v-0.29a33.033,33.033,0,0,0,9.37-1.3c0.26,0.52.51,1.04,0.74,1.55-0.12.04-.24,0.08-0.36,0.11a14.442,14.442,0,0,0-7.42,6.02v0.01A9.119,9.119,0,0,1,1042.14,4372.43Zm9.12,9.12a9.037,9.037,0,0,1-5.81-2.09c0.12,0.1.2,0.16,0.2,0.16s1.75-3.81,7.16-5.69a0.142,0.142,0,0,1,.06-0.02,38.571,38.571,0,0,1,1.95,6.92A9.021,9.021,0,0,1,1051.26,4381.55Zm5.09-1.55a39.652,39.652,0,0,0-1.77-6.52,13.244,13.244,0,0,1,5.68.4A9.125,9.125,0,0,1,1056.35,4380Z" transform="translate(-1040.56 -4361.75)"/>
</svg>
