<svg xmlns="http://www.w3.org/2000/svg" width="36.68" height="42.68" viewBox="0 0 18.34 21.34">
  <defs>
    <style>
      .cls-1 {
        fill: #062033;
        fill-rule: evenodd;
        opacity: 0.2;
      }
    </style>
  </defs>
  <path id="forrst" class="cls-1" d="M1060.52,4419.6a0.473,0.473,0,0,1-.4.22h-7.39v-4.01l3.28-2a0.668,0.668,0,0,0,.66-0.67,0.659,0.659,0,0,0-.66-0.66l-3.28,2v-2.34l1.97-1a0.665,0.665,0,0,0,0-1.33l-1.97,1v-1a0.66,0.66,0,0,0-.65-0.67h-1.31a0.668,0.668,0,0,0-.66.67v4.22l-2.62-.89a0.67,0.67,0,0,0,0,1.34l2.62,0.89v4.45h-7.38a0.5,0.5,0,0,1-.4-0.22,0.493,0.493,0,0,1-.04-0.47l8.71-20.38a0.484,0.484,0,0,1,.44-0.29,0.5,0.5,0,0,1,.44.29l8.68,20.38A0.522,0.522,0,0,1,1060.52,4419.6Z" transform="translate(-1042.25 -4398.47)"/>
</svg>
