<svg xmlns="http://www.w3.org/2000/svg" width="42.76" height="36.68" viewBox="0 0 21.38 18.34">
  <defs>
    <style>
      .cls-1 {
        fill: #062033;
        fill-rule: evenodd;
        opacity: 0.2;
      }
    </style>
  </defs>
  <path id="google_plus" data-name="google plus" class="cls-1" d="M1058.6,4441.11v3.26h-1.34v-3.26h-3.33v-1.33h3.33v-3.26h1.34v3.26h3.34v1.33h-3.34Zm-9.23-3.3a3.433,3.433,0,0,1,1.88,3.11,3.64,3.64,0,0,1-1.66,2.81c-0.91.69-1.08,0.99-1.08,1.58a3.626,3.626,0,0,0,1.48,1.72,3.8,3.8,0,0,1,1.93,3.6c0,1.99-1.93,4.23-5.49,4.23-3.13,0-5.85-1.5-5.85-3.5,0-2.03,2.49-3.99,5.62-3.99,0.34,0,.65-0.01.97-0.01a2.144,2.144,0,0,1-.76-1.54,2.216,2.216,0,0,1,.28-1.04c-0.17.01-.34-0.02-0.52-0.02a4.086,4.086,0,0,1-4.29-4.08c0-2.18,2.38-4.18,4.9-4.18h5.63l-1.26,1.31h-1.78Zm-2.58,10.08c-2.16-.02-4.1,1.3-4.1,2.88,0,1.61,1.56,2.79,3.73,2.79,3.04,0,4.1-1.09,4.1-2.71a2.776,2.776,0,0,0-.07-0.57c-0.24-.91-1.08-1.37-2.26-2.17A5.07,5.07,0,0,0,1046.79,4447.89Zm2.43-6.94c-0.25-1.87-1.69-3.38-3.14-3.42s-2.43,1.39-2.18,3.26,1.63,3.43,3.08,3.47S1049.47,4442.82,1049.22,4440.95Z" transform="translate(-1040.56 -4436.5)"/>
</svg>
