<svg xmlns="http://www.w3.org/2000/svg" width="42.76" height="34.64" viewBox="0 0 21.38 17.32">
  <defs>
    <style>
      .cls-1 {
        fill: #062033;
        fill-rule: evenodd;
        opacity: 0.2;
      }
    </style>
  </defs>
  <path id="twitter" class="cls-1" d="M1055.1,4327.05a4.5,4.5,0,0,1,3.47,1.38,7.4,7.4,0,0,0,2.24-.76c0.19-.1.37-0.2,0.55-0.3a4.446,4.446,0,0,1-1.42,2.06,2.317,2.317,0,0,1-.48.34v0.01a8.352,8.352,0,0,0,2.48-.67v0.01a6.931,6.931,0,0,1-1.49,1.7c-0.23.19-.46,0.37-0.68,0.55a12.543,12.543,0,0,1-.21,2.81c-1.09,4.92-3.99,8.26-8.58,9.69a13.157,13.157,0,0,1-6.2.25,15.6,15.6,0,0,1-2.58-.84,9.647,9.647,0,0,1-1.24-.64c-0.13-.08-0.26-0.15-0.38-0.23a7.115,7.115,0,0,0,1.4.05c0.43-.07.85-0.05,1.25-0.14a8.624,8.624,0,0,0,2.63-.95,4.807,4.807,0,0,0,1.18-.77,3.673,3.673,0,0,1-1.3-.24,4.4,4.4,0,0,1-2.78-2.8,4.24,4.24,0,0,0,1.96-.09,3.307,3.307,0,0,1-1.44-.57,4.2,4.2,0,0,1-2.06-3.75l0.45,0.21a4.945,4.945,0,0,0,.92.26,1.327,1.327,0,0,0,.6.05h-0.02c-0.22-.26-0.58-0.43-0.81-0.7a4.5,4.5,0,0,1-.98-3.98,5.56,5.56,0,0,1,.47-1.14,0.031,0.031,0,0,0,.02.01,2.935,2.935,0,0,0,.4.46,8.1,8.1,0,0,0,1.3,1.25,12.912,12.912,0,0,0,5.36,2.59,8.552,8.552,0,0,0,1.97.25,3.957,3.957,0,0,1,.02-2.05,4.312,4.312,0,0,1,2.48-2.95,5.256,5.256,0,0,1,.97-0.29C1054.75,4327.09,1054.93,4327.07,1055.1,4327.05Z" transform="translate(-1040.56 -4327.06)"/>
</svg>
